<?xml version="1.0" encoding="UTF-8"?>
<svg xmlns="http://www.w3.org/2000/svg" xmlns:xlink="http://www.w3.org/1999/xlink" width="55" height="55" viewBox="0 0 140 140">
  <defs>
    <style>
      .cls-1 {
        fill: url(#_ÂÁ_Ï_ÌÌ_È_ËÂÌÚ_104);
      }

      .cls-1, .cls-2, .cls-3 {
        stroke-width: 0px;
      }

      .cls-2 {
        fill: url(#_ÂÁ_Ï_ÌÌ_È_ËÂÌÚ_104-2);
      }

      .cls-3 {
        fill: url(#_ÂÁ_Ï_ÌÌ_È_ËÂÌÚ_104-3);
      }

      .cls-4 {
        mix-blend-mode: hard-light;
      }

      .cls-5 {
        isolation: isolate;
      }
    </style>
    <linearGradient id="_ÂÁ_Ï_ÌÌ_È_ËÂÌÚ_104" data-name="¡ÂÁ˚ÏˇÌÌ˚È „‡‰ËÂÌÚ 104" x1="53.07" y1="103.2" x2="121.39" y2="34.89" gradientUnits="userSpaceOnUse">
      <stop offset="0" stop-color="#9fdfff"/>
      <stop offset="1" stop-color="#c0f6ff"/>
    </linearGradient>
    <linearGradient id="_ÂÁ_Ï_ÌÌ_È_ËÂÌÚ_104-2" data-name="¡ÂÁ˚ÏˇÌÌ˚È „‡‰ËÂÌÚ 104" x1="36.24" y1="39.64" x2="49.1" y2="26.77" xlink:href="#_ÂÁ_Ï_ÌÌ_È_ËÂÌÚ_104"/>
    <linearGradient id="_ÂÁ_Ï_ÌÌ_È_ËÂÌÚ_104-3" data-name="¡ÂÁ˚ÏˇÌÌ˚È „‡‰ËÂÌÚ 104" x1="2.02" y1="76.21" x2="79.54" y2="-1.32" xlink:href="#_ÂÁ_Ï_ÌÌ_È_ËÂÌÚ_104"/>
  </defs>
  <g class="cls-5">
    <g id="_ÎÓÈ_10" data-name="—ÎÓÈ_10">
      <g class="cls-4">
        <path class="cls-1" d="M113.31,65.97v-32.21c0-8.7-6.63-15.86-15.11-16.7v31.9c0,13.4-10.9,24.3-24.3,24.3h-37.41c-2.56,2.34-5.09,4.25-7.54,5.81,2.87,2.29,6.5,3.66,10.45,3.66h40.45c16.16,16.49,33.37,13.17,29.94,10.58-5.13-3.86-7.79-7.67-8.97-11.16,7.18-1.9,12.49-8.42,12.49-16.2Z"/>
        <polygon class="cls-2" points="39.55 23.44 55.55 33.22 39.55 42.95 39.55 23.44"/>
        <path class="cls-3" d="M73.91,0H16.78C7.51,0,0,7.51,0,16.78v32.21c0,7.78,5.31,14.29,12.49,16.2-1.2,3.48-3.85,7.29-8.97,11.16-1.35,1.01.48,2.14,4.18,2.14,5.73,0,15.94-2.72,25.76-12.73h40.45c9.27,0,16.78-7.51,16.78-16.78V16.78c0-9.27-7.51-16.78-16.78-16.78ZM45.27,52.83c-10.74,0-19.46-8.72-19.46-19.46s8.72-19.46,19.46-19.46,19.46,8.71,19.46,19.46-8.72,19.46-19.46,19.46Z"/>
      </g>
    </g>
  </g>
</svg>