<svg width="79" height="79" viewBox="0 0 79 79" fill="none" xmlns="http://www.w3.org/2000/svg">
<path d="M39.4043 78.8086C60.9375 78.8086 78.8575 60.9375 78.8575 39.4043C78.8575 17.8711 60.8887 0 39.3555 0C17.8711 0 0 17.8711 0 39.4043C0 60.9375 17.92 78.8086 39.4043 78.8086Z" fill="#55D0FF"/>
<path d="M35.1075 58.2031C33.5938 58.2031 32.3731 57.6172 31.2012 56.0547L22.1191 44.6777C21.4355 43.8477 21.0938 42.8711 21.0938 41.8945C21.0938 39.8926 22.5585 38.2812 24.6093 38.2812C25.83 38.2812 26.8066 38.6719 27.8808 40.1367L34.9121 49.5117L50.4882 24.3164C51.2695 22.9492 52.3925 22.2656 53.5644 22.2656C55.5175 22.2656 57.2753 23.5352 57.2753 25.6348C57.2753 26.6113 56.7383 27.6367 56.1524 28.5156L38.7695 56.0547C37.8417 57.5195 36.5723 58.2031 35.1075 58.2031Z" fill="white"/>
</svg>
