<?xml version="1.0" encoding="UTF-8"?>
<svg id="Calque_1" data-name="Calque 1" xmlns="http://www.w3.org/2000/svg" version="1.1" viewBox="0 0 16 16">
  <defs>
    <style>
      .cls-1 {
        fill: #fff;
        stroke-width: 0px;
      }
    </style>
  </defs>
  <path class="cls-1" d="M8,1c-2.8,0-5,2.2-5,5v1h1c.6,0,1,.4,1,1v3c0,.6-.4,1-1,1h-1c-.6,0-1-.4-1-1v-5C2,2.7,4.7,0,8,0s6,2.7,6,6v6c0,1.4-1.1,2.5-2.5,2.5h-2.1c-.2.3-.5.5-.9.5h-1c-.6,0-1-.4-1-1s.4-1,1-1h1c.4,0,.7.2.9.5h2.1c.8,0,1.5-.7,1.5-1.5h-1c-.6,0-1-.4-1-1v-3c0-.6.4-1,1-1h1v-1c0-2.8-2.2-5-5-5Z"/>
</svg>