<?xml version="1.0" encoding="UTF-8"?>
<svg id="Calque_2" data-name="Calque 2" xmlns="http://www.w3.org/2000/svg" viewBox="0 0 7 7">
  <defs>
    <style>
      .cls-1 {
        fill: #fff;
        stroke-width: 0px;
      }
    </style>
  </defs>
  <path class="cls-1" d="M5.13.47H1.87C1.1.47.47,1.1.47,1.87v3.25c0,.77.63,1.41,1.4,1.41h.38v-.3h-.38c-.61,0-1.1-.5-1.1-1.11V1.87c0-.61.5-1.1,1.1-1.1h3.25c.61,0,1.11.5,1.11,1.1v3.25c0,.61-.5,1.11-1.11,1.11h-1.2v-2.58h.89v-.3h-.89v-.7c0-.17.05-.31.15-.39.08-.07.21-.11.34-.11.24,0,.48.13.48.26h.3c0-.34-.4-.56-.78-.56-.21,0-.4.07-.54.19-.12.1-.25.29-.25.62v.7h-.65v.3h.65v2.58h-.38v.3h1.88c.77,0,1.41-.63,1.41-1.41V1.87c0-.77-.63-1.4-1.41-1.4Z"/>
</svg>