<?xml version="1.0" encoding="UTF-8"?>
<svg xmlns="http://www.w3.org/2000/svg" xmlns:xlink="http://www.w3.org/1999/xlink" width="55" height="55" viewBox="0 0 140 140">
  <defs>
    <style>
      .cls-1 {
        fill: url(#_ÂÁ_Ï_ÌÌ_È_ËÂÌÚ_104);
        stroke-width: 0px;
      }

      .cls-2 {
        mix-blend-mode: hard-light;
      }

      .cls-3 {
        isolation: isolate;
      }
    </style>
    <linearGradient id="_ÂÁ_Ï_ÌÌ_È_ËÂÌÚ_104" data-name="¡ÂÁ˚ÏˇÌÌ˚È „‡‰ËÂÌÚ 104" x1="0" y1="56.09" x2="112.18" y2="56.09" gradientUnits="userSpaceOnUse">
      <stop offset="0" stop-color="#9fdfff"/>
      <stop offset="1" stop-color="#c0f6ff"/>
    </linearGradient>
  </defs>
  <g class="cls-3">
    <g id="_ÎÓÈ_10" data-name="—ÎÓÈ_10">
      <g class="cls-2">
        <path class="cls-1" d="M56.09,0C25.11,0,0,25.11,0,56.09s25.11,56.09,56.09,56.09,56.09-25.11,56.09-56.09S87.06,0,56.09,0ZM76.6,53.07c-.11-5.3-.49-10.18-1.08-14.62h18.74c2.09,4.5,3.4,9.43,3.77,14.62h-21.43ZM14.15,53.07c.37-5.19,1.68-10.12,3.77-14.62h18.84c-.6,4.44-.97,9.32-1.08,14.62H14.15ZM43.05,38.45h26.17c.62,4.39,1.02,9.26,1.14,14.62h-28.45c.12-5.36.52-10.23,1.14-14.62ZM14.17,59.31h21.51c.11,5.38.5,10.32,1.11,14.81h-18.68c-2.17-4.55-3.53-9.55-3.93-14.81ZM41.91,59.31h28.45c-.12,5.44-.53,10.38-1.16,14.81h-26.12c-.64-4.43-1.05-9.37-1.17-14.81ZM76.6,59.31h21.41c-.4,5.26-1.77,10.26-3.93,14.81h-18.6c.61-4.49,1-9.43,1.11-14.81ZM90.55,32.02h-16.09c-1.19-6.11-2.76-11.29-4.48-15.62,8.39,2.94,15.56,8.47,20.57,15.62ZM62.36,14.5c2.11,4.41,4.22,10.16,5.75,17.52h-23.94c1.53-7.36,3.64-13.12,5.75-17.54,2.01-.3,4.07-.46,6.17-.46s4.22.16,6.27.47ZM42.31,16.36c-1.72,4.34-3.29,9.54-4.49,15.66h-16.19c5.03-7.19,12.25-12.73,20.68-15.66ZM21.77,80.35h16.06c1.18,6.03,2.74,11.15,4.43,15.44-8.33-2.91-15.47-8.37-20.48-15.44ZM49.86,97.68c-2.09-4.37-4.17-10.06-5.69-17.33h23.92c-1.51,7.26-3.58,12.96-5.67,17.32-2.07.31-4.18.48-6.33.48s-4.19-.16-6.22-.46ZM70.05,95.75c1.68-4.28,3.22-9.4,4.4-15.4h15.96c-4.99,7.04-12.08,12.48-20.36,15.4Z"/>
      </g>
    </g>
  </g>
</svg>