<?xml version="1.0" encoding="UTF-8"?>
<svg id="Calque_2" data-name="Calque 2" xmlns="http://www.w3.org/2000/svg" viewBox="0 0 7 7">
  <defs>
    <style>
      .cls-1 {
        fill: #fff;
        stroke-width: 0px;
      }
    </style>
  </defs>
  <path class="cls-1" d="M3.58,1.94c-.83,0-1.5.67-1.5,1.5s.67,1.5,1.5,1.5,1.5-.67,1.5-1.5-.67-1.5-1.5-1.5ZM3.58,4.64c-.66,0-1.2-.54-1.2-1.2s.54-1.2,1.2-1.2,1.2.54,1.2,1.2-.54,1.2-1.2,1.2Z"/>
  <rect class="cls-1" x="4.98" y="1.55" width=".44" height=".44"/>
  <path class="cls-1" d="M5.13.47H1.87C1.1.47.47,1.1.47,1.87v3.25c0,.77.63,1.41,1.4,1.41h.64v-.3h-.64c-.61,0-1.1-.5-1.1-1.11V1.87c0-.61.5-1.1,1.1-1.1h3.25c.61,0,1.11.5,1.11,1.1v3.25c0,.61-.5,1.11-1.11,1.11h-1.61v.3h1.61c.77,0,1.41-.63,1.41-1.41V1.87c0-.77-.63-1.4-1.41-1.4Z"/>
</svg>