<?xml version="1.0" encoding="UTF-8"?>
<svg id="Calque_2" data-name="Calque 2" xmlns="http://www.w3.org/2000/svg" viewBox="0 0 7 7">
  <defs>
    <style>
      .cls-1 {
        fill: #fff;
        stroke-width: 0px;
      }
    </style>
  </defs>
  <rect class="cls-1" x="1.9" y="2.02" width=".39" height=".45"/>
  <path class="cls-1" d="M5.13.47H1.87C1.1.47.47,1.1.47,1.87v3.25c0,.77.63,1.41,1.4,1.41h.51v-.3h-.51c-.61,0-1.1-.5-1.1-1.11V1.87c0-.61.5-1.1,1.1-1.1h3.25c.61,0,1.11.5,1.11,1.1v3.25c0,.61-.5,1.11-1.11,1.11h-1.73v.3h1.73c.77,0,1.41-.63,1.41-1.41V1.87c0-.77-.63-1.4-1.41-1.4Z"/>
  <rect class="cls-1" x="1.9" y="3.08" width=".39" height="2.04"/>
  <path class="cls-1" d="M3.7,5.12v-1.09c0-.4.15-.66.51-.66.3,0,.41.2.41.49v1.26h.39v-1.31c0-.54-.29-.78-.68-.78s-.55.2-.63.37c0-.06,0-.26-.02-.32h-.38c0,.16,0,.34,0,.51v1.52h.39Z"/>
</svg>