<?xml version="1.0" encoding="UTF-8"?><svg id="Calque_2" xmlns="http://www.w3.org/2000/svg" viewBox="0 0 151.47 30.84"><defs><style>.cls-1{fill:#1e3463;}</style></defs><g id="Calque_1-2"><g><path class="cls-1" d="M41.66,6.86h-5.91s0,17.13,0,17.13h5.98c5.36,0,8.82-3.35,8.82-8.54s-3.57-8.59-8.89-8.59Zm-.17,14.22h-2.25V9.78h2.41c3.15,0,5.44,2.38,5.44,5.67s-2.3,5.62-5.59,5.62Z"/><path class="cls-1" d="M0,7.71v15.42l13.35,7.71,13.35-7.71V7.71L13.35,0,0,7.71Zm23.09,2.09v11.25l-9.74,5.62L3.62,21.04V9.8L13.35,4.18l9.74,5.62Z"/><path class="cls-1" d="M118.9,8.39c0,.99-.8,1.79-1.79,1.79s-1.79-.8-1.79-1.79,.8-1.79,1.79-1.79,1.79,.8,1.79,1.79Zm-.26,3.86h-3.06v11.74h3.06V12.25Z"/><path class="cls-1" d="M70.25,16.72c-1.31-.51-1.72-.75-1.72-1.3s.42-.84,1.13-.84c1.17,0,2.04,.63,2.81,1.32l1.78-1.9c-1.14-1.23-2.84-1.96-4.55-1.96-2.48,0-4.21,1.44-4.21,3.5,0,2.35,1.81,3.26,3.59,3.85,.21,.07,.41,.13,.59,.19,1.01,.32,1.57,.49,1.57,1.1,0,.34-.19,.91-1.43,.91-1.15,0-2.29-.56-2.92-1.43l-1.8,1.92c1.25,1.42,2.78,2.1,4.68,2.1,2.8,0,4.54-1.36,4.54-3.55s-1.53-2.94-4.05-3.92Z"/><path class="cls-1" d="M138.95,16.72c-1.31-.51-1.72-.75-1.72-1.3s.42-.84,1.13-.84c1.17,0,2.04,.63,2.81,1.32l1.78-1.9c-1.14-1.23-2.84-1.96-4.55-1.96-2.48,0-4.21,1.44-4.21,3.5,0,2.35,1.81,3.26,3.59,3.85,.21,.07,.41,.13,.59,.19,1.01,.32,1.57,.49,1.57,1.1,0,.34-.19,.91-1.43,.91-1.15,0-2.29-.56-2.92-1.43l-1.8,1.92c1.25,1.42,2.78,2.1,4.68,2.1,2.8,0,4.54-1.36,4.54-3.55s-1.53-2.94-4.05-3.92Z"/><path class="cls-1" d="M79.77,8.39c0,.99-.8,1.79-1.79,1.79s-1.79-.8-1.79-1.79,.8-1.79,1.79-1.79,1.79,.8,1.79,1.79Zm-3.63,20.16c2.02,0,3.38-1.39,3.38-4.15V12.25h-3.07v12.02c0,1.07-.44,1.59-1.17,1.59-.36,0-.7-.1-1.02-.29l-.52,2.56c.76,.3,1.37,.41,2.4,.41h0Z"/><path class="cls-1" d="M89.46,12.9c-.82-.54-1.96-.85-3.14-.85-1.93,0-3.52,.69-4.47,1.96,.21,.23,1.53,1.63,1.79,1.89,.48-.67,.94-1.02,1.62-1.23,.25-.08,.53-.12,.82-.12,.37,0,.75,.07,1.03,.19,.73,.31,1.14,.91,1.14,1.65v.77c-.08-.04-1.04-.45-2.6-.45-2.47,0-4.34,1.63-4.34,3.8s1.6,3.69,3.81,3.69c1.38,0,2.23-.61,2.99-1.23h.13v1.03h2.91v-7.68c0-1.52-.57-2.67-1.7-3.41Zm-1.21,7.26c0,.6-1.25,1.55-2.73,1.55-.91,0-1.51-.6-1.51-1.35,0-.49,.27-1.4,1.86-1.4,1.17,0,2.38,.37,2.38,.37v.84Z"/><path class="cls-1" d="M96.86,13.62h-.08v-1.38h-3.12v11.74h3.12v-5.29c0-2.12,1.04-3.56,3.69-3.56v-3.09c-1.58,.02-2.85,.5-3.62,1.58Z"/><path class="cls-1" d="M110.02,22.95h.14v1.03h2.91V6.85h-3.07v6.36h-.12c-.61-.73-2.05-1.17-3.03-1.17-3.72,0-5.73,3.13-5.73,6.07,0,2.24,.97,3.66,1.78,4.45,1.05,1.03,2.5,1.62,3.95,1.62,.7,0,1.81-.21,3.16-1.23Zm-2.98-1.54c-1.68,0-3-1.45-3-3.3s1.31-3.31,2.99-3.31c1.86,0,3.01,1.72,3.01,3.31,0,1.82-1.34,3.3-3,3.3Z"/><path class="cls-1" d="M124.33,13.21h-.12v-.96h-3.07v11.74h3.07v-6.11c0-2.7,1.68-3.1,2.67-3.1,1.77,0,2.4,1.47,2.4,2.84v6.37h3.07v-6.33c0-3.52-1.88-5.61-5.03-5.61-2.17,0-2.98,1.13-2.99,1.16Z"/><path class="cls-1" d="M63.81,17.99c-.02-3.51-2.38-5.94-5.76-5.94s-5.82,2.55-5.82,6.06,2.49,6.08,6.05,6.08c2.08,0,3.89-.77,4.97-2.1-.22-.24-1.58-1.68-1.83-1.92-.56,.64-1.61,1.32-2.9,1.32-1.55,0-2.73-.88-3.11-2.38h8.33c.05-.22,.07-.73,.07-1.11Zm-8.39-1.07c.35-1.41,1.37-2.18,2.74-2.18s2.29,.75,2.63,2.18h-5.37Z"/></g><g><path class="cls-1" d="M147.85,12.61v3.39h-.66v-2.1h0l-.83,1.46h-.43l-.83-1.46h0v2.1h-.67v-3.39h.68l1.04,1.93h0l1.03-1.93h.67Z"/><path class="cls-1" d="M148.59,12.61h1.12c1.07,0,1.76,.7,1.76,1.7s-.66,1.69-1.74,1.69h-1.13v-3.39Zm1.09,2.79c.66,0,1.09-.47,1.09-1.09s-.44-1.1-1.05-1.1h-.47v2.19h.43Z"/></g></g></svg>