<?xml version="1.0" encoding="UTF-8"?>
<svg id="Calque_1" data-name="Calque 1" xmlns="http://www.w3.org/2000/svg" version="1.1" viewBox="0 0 213.8 58.2">
  <defs>
    <style>
      .cls-1 {
        fill: #1e3463;
        stroke-width: 0px;
      }
    </style>
  </defs>
  <path class="cls-1" d="M41.4,54.2h-3.2c-1.6,0-2.7-1.1-2.7-2.7s1.1-2.6,2.7-2.6h3v1.1h-3c-.8,0-1.4.6-1.4,1.6s.6,1.6,1.4,1.6h1.9v-1.7h1.3v2.7Z"/>
  <path class="cls-1" d="M47.5,52.7l1.5,1.5h-1.6l-1.4-1.4h-2v1.4h-1.3v-5.3h3.6c1.5,0,2.5.7,2.5,1.9s-.5,1.6-1.3,1.9M46.3,51.8c.8,0,1.2-.3,1.2-.9s-.4-.9-1.2-.9h-2.3v1.8h2.3Z"/>
  <path class="cls-1" d="M54.2,53h-3l-.7,1.2h-1.4l3-5c.1-.2.4-.4.6-.4s.5.1.6.4l3,5h-1.5l-.6-1.2ZM53.6,52l-.9-1.6-.9,1.6h1.8Z"/>
  <path class="cls-1" d="M61.7,48.9h1.3v4.7c0,.4-.3.7-.7.7s-.4-.1-.5-.2l-3.5-3.4v3.5h-1.3v-4.7c0-.4.3-.7.7-.7s.4.1.5.2l3.5,3.4v-3.5Z"/>
  <path class="cls-1" d="M70.5,51.6c0,1.5-1.1,2.6-2.7,2.6h-3.4v-5.3h3.4c1.5,0,2.7,1.1,2.7,2.7M69.1,51.6c0-.9-.6-1.6-1.4-1.6h-2.1v3.2h2.1c.8-.1,1.4-.7,1.4-1.6"/>
  <rect class="cls-1" x="71.5" y="48.9" width="1.3" height="5.3"/>
  <path class="cls-1" d="M79,52.7l1.5,1.5h-1.7l-1.3-1.4h-2v1.4h-1.3v-5.3h3.6c1.5,0,2.5.7,2.5,1.9,0,.9-.5,1.6-1.3,1.9M77.7,51.8c.8,0,1.2-.3,1.2-.9s-.4-.9-1.2-.9h-2.2v1.8h2.2Z"/>
  <path class="cls-1" d="M81.2,53.6c0-.4.3-.6.7-.6h.3c.4,0,.7.2.7.6s-.3.6-.7.6h-.3c-.4,0-.7-.3-.7-.6"/>
  <polygon class="cls-1" points="87.6 51 91.2 51 91.2 52 87.6 52 87.6 53.1 91.7 53.1 91.7 54.2 86.3 54.2 86.3 48.9 91.7 48.9 91.7 50 87.6 50 87.6 51"/>
  <path class="cls-1" d="M97.4,48.9h1.3v4.7c0,.4-.3.7-.7.7s-.4-.1-.5-.2l-3.5-3.4v3.5h-1.3v-4.7c0-.4.3-.7.7-.7s.4.1.5.2l3.5,3.4v-3.5Z"/>
  <path class="cls-1" d="M103.5,53.1c.6,0,.9-.2.9-.5s-.3-.5-.9-.5h-1.6c-1.4,0-2.1-.6-2.1-1.5s.8-1.6,2.2-1.6h3.4v1.1h-3.4c-.6,0-.9.2-.9.5s.3.5.9.5h1.6c1.4,0,2.1.5,2.1,1.6s-.8,1.7-2.3,1.7h-3.6v-1.1h3.7s0-.2,0-.2Z"/>
  <polygon class="cls-1" points="108.1 51 111.7 51 111.7 52 108.1 52 108.1 53.1 112.1 53.1 112.1 54.2 106.7 54.2 106.7 48.9 112.1 48.9 112.1 50 108.1 50 108.1 51"/>
  <path class="cls-1" d="M113.2,49.4c0-.4.3-.6.7-.6s.5.1.6.3l2.4,3.2,2.4-3.2c.2-.2.4-.3.6-.3.4,0,.6.3.6.6v4.8h-1.3v-3.2l-1.8,2.4c0,.2-.3.3-.5.3s-.4-.1-.5-.3l-1.8-2.4v3.2h-1.3v-4.8h0Z"/>
  <path class="cls-1" d="M127.9,52.7c0,.9-.8,1.6-2,1.6h-4v-5.3h3.9c1.2,0,1.9.6,1.9,1.5s-.2.8-.6,1.1c.5,0,.8.5.8,1.1M123.2,51h2.5c.5,0,.7-.2.7-.5s-.2-.5-.7-.5h-2.5v1ZM126.6,52.6c0-.4-.2-.6-.8-.6h-2.6v1.2h2.6c.5-.1.8-.2.8-.6"/>
  <polygon class="cls-1" points="134.1 53.1 134.1 54.2 128.9 54.2 128.9 48.9 130.2 48.9 130.2 53.1 134.1 53.1"/>
  <polygon class="cls-1" points="136.5 51 140.1 51 140.1 52 136.5 52 136.5 53.1 140.6 53.1 140.6 54.2 135.2 54.2 135.2 48.9 140.6 48.9 140.6 50 136.5 50 136.5 51"/>
  <path class="cls-1" d="M141.7,53.6c0-.4.3-.6.7-.6h.3c.4,0,.7.2.7.6s-.3.6-.7.6h-.3c-.4,0-.7-.3-.7-.6"/>
  <path class="cls-1" d="M54.6,23.2c0,2.3-1.9,3.9-5.1,3.9h-10v-13.1h9.7c3,0,4.8,1.4,4.8,3.6s-.5,2.1-1.4,2.7c1.4.5,2,1.5,2,2.9M42.9,19h6.2c1.2,0,1.7-.4,1.7-1.3s-.5-1.2-1.7-1.2h-6.2v2.5ZM51.3,22.9c0-1-.6-1.4-1.9-1.4h-6.5v2.9h6.5c1.3,0,1.9-.5,1.9-1.5"/>
  <path class="cls-1" d="M67.6,24.1h-7.3l-1.6,2.9h-3.7l7.4-12.5c.3-.5.9-.9,1.5-.9s1.2.4,1.5.9l7.4,12.5h-3.6l-1.6-2.9ZM66.1,21.5l-2.2-3.9-2.2,3.9h4.4Z"/>
  <path class="cls-1" d="M86.2,13.9h3.2v11.7c0,1-.7,1.6-1.7,1.6s-1-.2-1.3-.5l-8.6-8.4v8.7h-3.2v-11.7c0-1,.7-1.7,1.7-1.7s1,.2,1.3.5l8.6,8.3v-8.5Z"/>
  <path class="cls-1" d="M106,27l-.8-.6c-.9.4-1.9.6-3,.6h-3.5c-3.9,0-6.8-2.8-6.8-6.7s2.7-6.5,6.8-6.5h3.5c4,0,6.7,2.7,6.7,6.5s-.6,3.4-1.7,4.6l2.5,2.1h-3.7ZM102.7,24.4l-2.6-2.1h3.9l.9.8c.5-.7.8-1.6.8-2.6,0-2.3-1.4-3.9-3.4-3.9h-3.5c-2,0-3.4,1.5-3.4,3.9s1.4,4,3.4,4h3.5c0,0,.3,0,.4,0"/>
  <path class="cls-1" d="M126.8,13.9v7.4c0,3.9-2.7,5.9-7.7,5.9s-7.7-2.1-7.7-5.9v-7.4h3.2v7.1c0,2.5,1.3,3.5,4.5,3.5s4.5-1,4.5-3.5v-7.1h3.2Z"/>
  <polygon class="cls-1" points="133.2 19 142.1 19 142.1 21.6 133.2 21.6 133.2 24.4 143.3 24.4 143.3 27 129.9 27 129.9 13.9 143.3 13.9 143.3 16.5 133.2 16.5 133.2 19"/>
  <path class="cls-1" d="M14.9,35.3c0,3-2.3,4.7-6.2,4.7H3.3v3.7H0v-13.1h8.7c4,0,6.2,1.7,6.2,4.7M11.6,35.3c0-1.4-.9-2.1-2.9-2.1H3.4v4.2h5.3c1.9,0,2.9-.7,2.9-2.1"/>
  <path class="cls-1" d="M33.8,37c0,3.9-2.8,6.7-6.7,6.7h-3.5c-3.9,0-6.8-2.8-6.8-6.7s2.7-6.5,6.8-6.5h3.5c4,.1,6.7,2.7,6.7,6.5M30.5,37c0-2.3-1.4-3.9-3.4-3.9h-3.5c-2,0-3.4,1.5-3.4,3.9s1.4,4,3.4,4h3.5c2,.1,3.4-1.7,3.4-4"/>
  <path class="cls-1" d="M51.3,35.3c0,3-2.3,4.7-6.2,4.7h-5.4v3.7h-3.3v-13.1h8.7c3.9,0,6.2,1.7,6.2,4.7M47.9,35.3c0-1.4-.9-2.1-2.9-2.1h-5.3v4.2h5.3c2,0,2.9-.7,2.9-2.1"/>
  <path class="cls-1" d="M69.1,30.5v7.4c0,3.9-2.7,5.9-7.7,5.9s-7.7-2.1-7.7-5.9v-7.4h3.2v7.1c0,2.5,1.3,3.5,4.5,3.5s4.5-1,4.5-3.5v-7.1h3.2Z"/>
  <polygon class="cls-1" points="85.1 41.1 85.1 43.7 72.2 43.7 72.2 30.6 75.5 30.6 75.5 41.1 85.1 41.1"/>
  <path class="cls-1" d="M98.9,40.8h-7.3l-1.6,2.9h-3.6l7.4-12.5c.3-.5.9-.9,1.5-.9s1.2.4,1.5.9l7.4,12.5h-3.6l-1.7-2.9ZM97.4,38.2l-2.2-3.9-2.2,3.9h4.4Z"/>
  <rect class="cls-1" x="105.8" y="30.6" width="3.3" height="13.1"/>
  <path class="cls-1" d="M124.3,39.9l3.8,3.8h-4.2l-3.3-3.4h-5v3.4h-3.3v-13.1h9c3.8,0,6.1,1.8,6.1,4.8s-1.1,3.8-3.1,4.5M121.2,37.7c2,0,2.9-.7,2.9-2.3s-.9-2.3-2.9-2.3h-5.5v4.6h5.5Z"/>
  <polygon class="cls-1" points="133.2 35.7 142.1 35.7 142.1 38.3 133.2 38.3 133.2 41.1 143.3 41.1 143.3 43.7 129.9 43.7 129.9 30.6 143.3 30.6 143.3 33.2 133.2 33.2 133.2 35.7"/>
  <path class="cls-1" d="M184.7,58.2c-16,0-29.1-13-29.1-29.1S168.6,0,184.7,0s29.1,13,29.1,29.1-13,29.1-29.1,29.1M184.7,2.1c-14.9,0-27,12.1-27,27s12.1,27,27,27,27-12.1,27-27-12.1-27-27-27"/>
  <path class="cls-1" d="M183.4,42.7c-.1-.1-.4-.3-.5-.7-.1-.2-.1-.7-.3-.9-.9-.7-1.8-1.3-3-2-.4.2-.9.5-1.3.7.7.4,1.5,1,2.3,1.8.1.1.2.1.4.1.2-.1.5-.1.7,0,.3.2.3.6,0,.9h0c0,.4.1.6.1.8,0,0,0,.1.1.1l1.7.9c.1,0,.2,0,.1-.1-.1-1.1-.2-1.4-.3-1.6q.1,0,0,0M192.3,35.2c-.2.1-.5.2-.6.5-.3.7-.5,1.3-.7,2-.4.5-.5.9-.5,1.6s-.6,1.5-1.9,5c0,.1-.1.2,0,.3,0,.1.1.3.2.5h.1c.1.1.3.1.3.2.2,0,.7.2.8.7v.3h0c0,.1.1.4.2.7h.1c0,.1,1.8.1,1.8.1.1,0,.2-.1.1-.2-.4-.6-.5-.7-.7-1.1h0c-.7-.3-.9-.6-1.1-.8-.2-.3-.2-.6-.2-.8.1-1,1.6-3.7,1.9-4,.5-.4.6-.7.7-1,.1-.3.1-.5.1-.6.1-.4,1.1-1.7,1.6-2.4-.9-.7-1.5-.7-2.2-1M200.7,16.3s-.1,0,0,0q-.2-.2-.2-.3c-.1-.3-.1-.4-.2-.4s-.2-.1-.3-.1c-.3,0-.6,0-.9-.1-1.5-.6-2.2-1.2-2.2-1.2.2-.2.6-.7.2-1.4,0,.2-.1.3-.2.3.1-.6-.3-1-.7-1.1.3.2.2.6.2.7-.1-.2-.3-.5-.6-.5.2.5-.1,1-.7.9.2-.6.1-1.3-.1-2h0c-.3.7-.7.9-1.1,2-.3-.2-1.4-.8-2.3-.4.3.1.9.3,1,.6-.9-.2-2-.1-2.7.5.5-.1,1.2.1,1.4.3-.4.3-1.2.4-2.1.4.2.2,1,.6,1.5.7-1.3,0-1.6.6-2.4,1,.9-.1,1.2.3,1.8.3-1,.2-1.4.6-2.5.5.2.4,1.1.9,1.5,1-.6.1-1.4.6-2.1.4.3.6,1.4.9,2,.9-.1.2-1.2.4-1.7.4.2.3,1.2.3,1.4.4-.2.2-1.5.4-1.9.4.3.6,1.6.9,2.2.8-.2.6-1.8.5-2.5.2.3.7,1.5,1.5,2.6,1.4-.5.3-1.8.4-2.4.3.2.4,1.1,1,1.8,1.2.6.2.4.6-.2.8-2.1.6-5.3.6-7.8.1-.7-.1-1.7-.1-2.4,0-.5.1-.9.2-1.3.4h0c-.2.1-.2,0-.2-.3h0c.1-.5.1-1,0-1.5-.2-1.1-1.2-1.8-2.2-2.3-.9-.4-2-.6-3-.5-.4,0-.8.1-1.2.1s-.9.2-1.2.3c.2.1.3.2.8.3-1.4.1-2.8.6-4.1-.2.2.8,1.1,1,1.7,1-3.5.6-5.2-1.4-5.4-1.8.5,2.1,2.4,2.8,3,2.9-.4,0-1.5.1-3-.7.8,1.9,4.4,1.6,4.6,1.6-.2.1-1.1.4-2.5.3,1.7,1.3,4.4-.3,7.9-.4-.7.1-1.8.5-2.5,1.3,2.3-1,4.3-.8,4.5-.8,1.9.1,1.8.9,1,2.1-.3.5-.5,1.1-.6,1.7-.2,1.5.4,3,1.3,4.1.3.4.7.8,1.1,1.2.6.5,1,.9,1.3,1.1.7.6.8.8.7,1-.3.5-.8.9-1.3,1.3h-.2c-.2-.2-.2-.3-.2-.3.3-.1.8-.2,1.2-.8.1-.1.1-.2.1-.4s-.2-.3-.4-.5h-.1c-.1-.2-.2-.3-.3-.4-.3-.2-.8-.5-1.2-.9-.6,2-1.6,2.9-1.9,3,0,0-.1.1,0,.1,0,.1.1.4.1.7s.1.2.2.2c.3,0,.5.1.9.1h.2c-.1.2-.1.4-.1.7s0,.1.1.1c.3.3.9.8,1.2,1.1.7.8,1.2,1.2,2.2,4.1,0,.1.2.1.3.2,1,.2,1,1,.9,1.2h0c0,.4.1.6.1.7,0,0,0,.1.1.1h2c.1,0,.1-.1.1-.1-.4-.7-.6-1-.8-1.2h0c-.2-.1-.8-.2-1-.7-.1-.2-.1-.3,0-.5,0-.1-.1-.4-.1-.5-1.3-1.5-2.2-3.6-2.4-4.1h0q0-.1.1-.1h0c.4-.2.7-.4,1.2-.8.2-.1.3-.2.4-.3,1.4-1,2.1-1.9,2.6-2.9s.5-1.7.4-2.3c-.1-.6-.4-1.1-.6-1.4,0,0,0-.1.1,0,.5.3.9,1.6,1,1.8,0,0,1.6,1.2,7.8,1.2h.6c.1,0,.3,0,.4-.1-.1-.1-.3-.2-.4-.3-.4-.4-.7-.9-.9-1.5-.1-.3-.2-.9-.2-1.2s.1-.2.1,0c.1.3.1.7.3,1,.2.5.4.9.8,1.2.3.3.7.7,1.2.9.1.1.2.1.4.2,2,.9,3.4,1.4,4.8,2,0,0,.1.1.1.2v.5c0,.1-.1.2-.1.2-1.1,1.3-1.7,1.9-2.9,2.9-.1.1-.2.2-.2.4,0,.3.1.4.1.6s-.1.2-.2.2c-.2-.1-.5-.2-.8-.3q-.1,0-.2.1l-.9,1.7c0,.1,0,.2.1.2.4-.1.9-.1,1.2-.2.5-.1.5-.6,1.4-.8.1,0,.3,0,.5-.2.1-.2.4-.7.6-1.1.3-.4.4-.7.5-.8.6-.8.7-.9,2.3-2.6v-.2c.1-.3.2-.7.2-1.1s-.1-.3-.1-.4c0,0-.3-.3-.3-.4-1.2-.8-2.3-2.2-2.7-2.6h.1q0-.1.1-.2c.3-.3.6-.7.8-1.1,1.2-2.3.5-4.9-.5-7.1-2.4-4.9-2.1-6.9-2.1-6.9.8.2,1.4-.3,2-.4h1.5c.1.1.3.3.4.4h.3c.1,0,.3-.1.5-.2h.3c0-.1.1-.1.1-.2.1-.1.2-.3.2-.4h0c-.2-.1-.6-.2-.7-.2s-.1-.3,0-.3c.2,0,.7.1.8.1h.1c0-.1.1-.3.2-.4-.5.3-.5.2-.6,0M196.1,14.8c-.3,0-.3.1-.3.1,0,.1.1.2.3.3-.3,0-.4-.1-.7-.4.2-.2.4-.3.7-.3s.5.5.5.5c0,0-.4-.1-.5-.2"/>
</svg>