<?xml version="1.0" encoding="UTF-8"?>
<svg xmlns="http://www.w3.org/2000/svg" xmlns:xlink="http://www.w3.org/1999/xlink" width="55" height="55" viewBox="0 0 140 140">
  <defs>
    <style>
      .cls-1 {
        fill: url(#_ÂÁ_Ï_ÌÌ_È_ËÂÌÚ_104);
      }

      .cls-1, .cls-2, .cls-3 {
        stroke-width: 0px;
      }

      .cls-2 {
        fill: url(#_ÂÁ_Ï_ÌÌ_È_ËÂÌÚ_104-2);
      }

      .cls-3 {
        fill: url(#_ÂÁ_Ï_ÌÌ_È_ËÂÌÚ_104-3);
      }

      .cls-4 {
        mix-blend-mode: hard-light;
      }

      .cls-5 {
        isolation: isolate;
      }
    </style>
    <linearGradient id="_ÂÁ_Ï_ÌÌ_È_ËÂÌÚ_104" data-name="¡ÂÁ˚ÏˇÌÌ˚È „‡‰ËÂÌÚ 104" x1="60.66" y1="101.32" x2="96.88" y2="38.59" gradientUnits="userSpaceOnUse">
      <stop offset="0" stop-color="#9fdfff"/>
      <stop offset="1" stop-color="#c0f6ff"/>
    </linearGradient>
    <linearGradient id="_ÂÁ_Ï_ÌÌ_È_ËÂÌÚ_104-2" data-name="¡ÂÁ˚ÏˇÌÌ˚È „‡‰ËÂÌÚ 104" x1="32.86" y1="102.26" x2="83.67" y2="14.26" xlink:href="#_ÂÁ_Ï_ÌÌ_È_ËÂÌÚ_104"/>
    <linearGradient id="_ÂÁ_Ï_ÌÌ_È_ËÂÌÚ_104-3" data-name="¡ÂÁ˚ÏˇÌÌ˚È „‡‰ËÂÌÚ 104" x1="42.29" y1="55.05" x2="53.08" y2="36.35" xlink:href="#_ÂÁ_Ï_ÌÌ_È_ËÂÌÚ_104"/>
  </defs>
  <g class="cls-5">
    <g id="_ÎÓÈ_10" data-name="—ÎÓÈ_10">
      <g class="cls-4">
        <path class="cls-1" d="M120.55,107.41l-23.39-21.69c-1.95-1.81-4.73-2.18-7.01-1.17l-3.86-3.58c5.1-6.24,8.15-14.2,8.15-22.88,0-20-16.21-36.21-36.21-36.21S22.02,38.1,22.02,58.09s16.21,36.21,36.21,36.21c9.37,0,17.9-3.56,24.33-9.39l4.03,3.73c-.67,2.28-.08,4.83,1.78,6.56l23.39,21.69c2.62,2.43,6.71,2.27,9.14-.35,2.43-2.62,2.27-6.71-.34-9.13ZM58.23,83.67c-14.12,0-25.58-11.45-25.58-25.58s11.45-25.57,25.58-25.57,25.58,11.45,25.58,25.57-11.45,25.58-25.58,25.58Z"/>
        <path class="cls-2" d="M82.27,95.52c-6.42,4.14-13.77,6.52-21.39,6.96v-1.36c0-1.44-1.17-2.62-2.62-2.62s-2.62,1.17-2.62,2.62v1.37c-22.37-1.31-40.34-19.25-41.68-41.61h1.44c1.44,0,2.62-1.17,2.62-2.62s-1.17-2.62-2.62-2.62h-1.45c1.27-22.43,19.27-40.45,41.69-41.76v1.52c0,1.44,1.17,2.62,2.62,2.62s2.62-1.17,2.62-2.62v-1.52c22.42,1.31,40.42,19.33,41.69,41.76h-1.45c-1.44,0-2.62,1.17-2.62,2.62s1.17,2.62,2.62,2.62h1.44c-.38,6.32-2.12,12.52-5.07,18.08-.68,1.28-.19,2.86,1.08,3.54,1.28.68,2.86.19,3.54-1.08,3.35-6.31,5.29-13.36,5.68-20.53h6.11c1.44,0,2.62-1.17,2.62-2.62s-1.17-2.62-2.62-2.62h-6.1c-1.28-25.31-21.63-45.68-46.93-47V2.62c0-1.44-1.17-2.62-2.62-2.62s-2.62,1.17-2.62,2.62v6.03C30.34,9.97,10,30.33,8.72,55.65H2.62c-1.44,0-2.62,1.17-2.62,2.62s1.17,2.62,2.62,2.62h6.11c1.36,25.24,21.67,45.53,46.92,46.85v6.18c0,1.44,1.17,2.62,2.62,2.62s2.62-1.17,2.62-2.62v-6.19c8.63-.45,16.95-3.12,24.22-7.8,1.21-.78,1.56-2.4.78-3.62-.78-1.21-2.4-1.56-3.62-.78Z"/>
        <path class="cls-3" d="M54.16,37.59c-.26.05-11,1.93-15.29,13.27-.45,1.2.17,2.53,1.36,2.97.27.1.54.14.8.14.94,0,1.82-.58,2.17-1.51,2.83-7.71,9.84-9.86,11.47-10.25.22-.06.28-.06.28-.06,1.25-.22,2.1-1.42,1.88-2.68-.22-1.25-1.42-2.09-2.68-1.88Z"/>
      </g>
    </g>
  </g>
</svg>