<svg width="24" height="24" viewBox="0 0 24 24" fill="none" xmlns="http://www.w3.org/2000/svg">
<path fill-rule="evenodd" clip-rule="evenodd" d="M12.0015 2C6.36855 2 1.99997 6.12644 1.99997 11.7011C1.99997 14.6169 3.19537 17.1356 5.1402 18.8751C5.30189 19.0215 5.40074 19.2238 5.4084 19.4444L5.46357 21.2245C5.46753 21.3554 5.50362 21.4833 5.56865 21.5969C5.63368 21.7106 5.72567 21.8065 5.8365 21.8762C5.94733 21.9459 6.07361 21.9873 6.2042 21.9968C6.3348 22.0062 6.46572 21.9834 6.58541 21.9303L8.57085 21.0552C8.7402 20.9816 8.92794 20.9671 9.10418 21.0146C10.0161 21.2651 10.9869 21.4008 11.9984 21.4008C17.6314 21.4008 22 17.2751 22 11.7004C22 6.12644 17.6322 2 12.0015 2ZM17.2528 9.57854L14.7486 13.5502C14.6544 13.6997 14.5302 13.8281 14.3839 13.9272C14.2376 14.0263 14.0724 14.0941 13.8986 14.1262C13.7248 14.1583 13.5462 14.154 13.3742 14.1137C13.2021 14.0734 13.0403 13.9979 12.8988 13.892L10.9065 12.3992C10.8178 12.3329 10.71 12.2971 10.5992 12.2971C10.4884 12.2971 10.3807 12.3329 10.2919 12.3992L7.6038 14.4398C7.24748 14.7119 6.77621 14.282 7.0153 13.9034L9.51951 9.9318C9.61375 9.7823 9.73793 9.65394 9.88424 9.55481C10.0305 9.45568 10.1958 9.38793 10.3696 9.35582C10.5434 9.32371 10.7219 9.32795 10.894 9.36826C11.066 9.40857 11.2279 9.48408 11.3693 9.59004L13.3617 11.0828C13.4504 11.149 13.5582 11.1849 13.6689 11.1849C13.7797 11.1849 13.8875 11.149 13.9762 11.0828L16.6643 9.04215C17.0245 8.76628 17.4958 9.19617 17.2528 9.57854Z" stroke="white" stroke-width="0.75" stroke-linejoin="round"/>
</svg>
