<?xml version="1.0" encoding="UTF-8"?>
<svg xmlns="http://www.w3.org/2000/svg" xmlns:xlink="http://www.w3.org/1999/xlink" width="55" height="55" viewBox="0 0 140 140">
  <defs>
    <style>
      .cls-1 {
        fill: url(#_ÂÁ_Ï_ÌÌ_È_ËÂÌÚ_104-2);
      }

      .cls-1, .cls-2 {
        mix-blend-mode: hard-light;
        stroke-width: 0px;
      }

      .cls-2 {
        fill: url(#_ÂÁ_Ï_ÌÌ_È_ËÂÌÚ_104);
      }

      .cls-3 {
        isolation: isolate;
      }
    </style>
    <linearGradient id="_ÂÁ_Ï_ÌÌ_È_ËÂÌÚ_104" data-name="¡ÂÁ˚ÏˇÌÌ˚È „‡‰ËÂÌÚ 104" x1="21.08" y1="108.44" x2="67.05" y2="28.82" gradientUnits="userSpaceOnUse">
      <stop offset="0" stop-color="#9fdfff"/>
      <stop offset="1" stop-color="#c0f6ff"/>
    </linearGradient>
    <linearGradient id="_ÂÁ_Ï_ÌÌ_È_ËÂÌÚ_104-2" data-name="¡ÂÁ˚ÏˇÌÌ˚È „‡‰ËÂÌÚ 104" x1="62.95" y1="27.72" x2="62.95" y2="0" xlink:href="#_ÂÁ_Ï_ÌÌ_È_ËÂÌÚ_104"/>
  </defs>
  <g class="cls-3">
    <g id="_ÎÓÈ_10" data-name="—ÎÓÈ_10">
      <path class="cls-2" d="M92.35,79.87c1.48,0,2.75-1.03,3.06-2.48l8.35-39.54c.19-.92-.04-1.87-.62-2.61-.52-.65-1.28-1.04-2.09-1.13H26.65l-12.01-15.21c.34-.86.53-1.79.53-2.77,0-4.19-3.39-7.58-7.58-7.58S0,11.96,0,16.14s3.39,7.58,7.58,7.58c.72,0,1.41-.11,2.07-.29l9.28,11.43,10.81,42.66c.35,1.39,1.6,2.36,3.03,2.36h1.47l-3.46,10.95c-.09,0-.16-.02-.24-.02-6.68,0-12.1,5.42-12.1,12.1s5.42,12.1,12.1,12.1c5.51,0,10.16-3.69,11.61-8.73h32.09c1.46,5.04,6.1,8.73,11.61,8.73,6.68,0,12.1-5.42,12.1-12.1s-5.42-12.1-12.1-12.1c-5.55,0-10.22,3.75-11.64,8.86h-32.03c-.81-2.89-2.64-5.33-5.09-6.91l4.06-12.88h51.19ZM85.85,95.75c3.96,0,7.17,3.21,7.17,7.16s-3.21,7.16-7.17,7.16-7.16-3.21-7.16-7.16,3.21-7.16,7.16-7.16ZM29.22,45.13c0-1.05.85-1.9,1.9-1.9h61c1.05,0,1.9.85,1.9,1.9s-.85,1.9-1.9,1.9H31.12c-1.05,0-1.9-.85-1.9-1.9ZM31.64,53.56c0-1.05.85-1.9,1.9-1.9h57.04c1.05,0,1.9.85,1.9,1.9s-.85,1.9-1.9,1.9h-57.04c-1.05,0-1.9-.85-1.9-1.9ZM33.61,61.98c0-1.05.85-1.9,1.9-1.9h53.43c1.05,0,1.9.85,1.9,1.9s-.85,1.9-1.9,1.9h-53.43c-1.05,0-1.9-.85-1.9-1.9ZM37.7,102.9c0,3.95-3.21,7.16-7.16,7.16s-7.16-3.21-7.16-7.16,3.21-7.16,7.16-7.16,7.16,3.21,7.16,7.16ZM35.75,70.41c0-1.05.85-1.9,1.9-1.9h50c1.05,0,1.9.85,1.9,1.9s-.85,1.9-1.9,1.9h-50c-1.05,0-1.9-.85-1.9-1.9Z"/>
      <polygon class="cls-1" points="51.38 16.14 62.96 27.72 74.54 16.14 74.54 8.5 65.73 17.31 65.73 0 60.13 0 60.13 17.25 51.36 8.49 51.38 16.14"/>
    </g>
  </g>
</svg>