<?xml version="1.0" encoding="UTF-8"?>
<svg id="Calque_1" data-name="Calque 1" xmlns="http://www.w3.org/2000/svg" viewBox="0 0 50 50">
  <defs>
    <style>
      .cls-1 {
        fill: #fff;
        stroke-width: 0px;
      }
    </style>
  </defs>
  <path class="cls-1" d="M25,2.5C12.59,2.5,2.5,12.59,2.5,25s10.09,22.5,22.5,22.5,22.5-10.09,22.5-22.5S37.41,2.5,25,2.5ZM25,46.32c-11.76,0-21.32-9.56-21.32-21.32S13.24,3.68,25,3.68s21.32,9.56,21.32,21.32-9.56,21.32-21.32,21.32Z"/>
  <path class="cls-1" d="M20.76,16.69c-.98,0-1.77.79-1.77,1.77v13.09c0,.98.79,1.77,1.77,1.77s1.77-.79,1.77-1.77v-13.09c0-.98-.79-1.77-1.77-1.77Z"/>
  <path class="cls-1" d="M29.24,16.69c-.98,0-1.77.79-1.77,1.77v13.09c0,.98.79,1.77,1.77,1.77s1.77-.79,1.77-1.77v-13.09c0-.98-.79-1.77-1.77-1.77Z"/>
</svg>