<svg width="24" height="24" viewBox="0 0 24 24" fill="none" xmlns="http://www.w3.org/2000/svg">
<path fill-rule="evenodd" clip-rule="evenodd" d="M7.83634 2C8.93517 2 10.0021 2.30868 10.9203 2.87787C11.2472 2.84294 11.5763 2.82533 11.9063 2.82533C13.1209 2.82533 14.3236 3.06376 15.4457 3.52701C16.5678 3.99026 17.5873 4.66925 18.4461 5.52522C19.305 6.38119 19.9862 7.39738 20.451 8.51576C20.9158 9.63414 21.155 10.8328 21.155 12.0433C21.155 12.4735 21.1248 12.9022 21.065 13.3263C21.1784 13.5276 21.28 13.7358 21.369 13.95C21.6626 14.6564 21.8137 15.4134 21.8137 16.178C21.8137 16.9426 21.6626 17.6996 21.369 18.406C21.0755 19.1123 20.6452 19.7542 20.1028 20.2948C19.5604 20.8354 18.9164 21.2642 18.2077 21.5568C17.499 21.8494 16.7394 22 15.9723 22C14.9215 22 13.8999 21.7178 13.0095 21.1955C12.6442 21.2393 12.2758 21.2613 11.9063 21.2613C10.6918 21.2613 9.48913 21.0229 8.36703 20.5597C7.24493 20.0964 6.22537 19.4174 5.36655 18.5614C4.50773 17.7055 3.82648 16.6893 3.36169 15.5709C2.8969 14.4525 2.65768 13.2539 2.65768 12.0433C2.65768 11.5901 2.69121 11.1385 2.75757 10.6921C2.26338 9.82399 1.99701 8.83568 1.99701 7.82C1.99701 6.27644 2.61222 4.7961 3.70731 3.70464C4.8024 2.61318 6.28766 2 7.83634 2ZM8.39434 10.762C8.62004 11.1483 8.93192 11.4773 9.30567 11.7233C9.80087 12.0473 10.3273 12.3209 10.877 12.54C11.4917 12.7969 11.9686 13.0147 12.3077 13.1933C12.5944 13.3344 12.8547 13.5238 13.077 13.7533C13.2452 13.9319 13.3388 14.168 13.3383 14.4133C13.3456 14.5863 13.3115 14.7586 13.2389 14.9158C13.1664 15.073 13.0574 15.2106 12.921 15.3173C12.5567 15.5624 12.1209 15.6786 11.683 15.6473C11.4354 15.6499 11.1882 15.6244 10.9463 15.5713C10.7502 15.5283 10.5583 15.4676 10.373 15.39C10.2108 15.3198 9.98923 15.2144 9.70834 15.074C9.48245 14.9535 9.231 14.8888 8.97501 14.8853C8.74525 14.8759 8.52067 14.9552 8.34767 15.1067C8.26516 15.1852 8.20067 15.2807 8.15866 15.3866C8.11665 15.4925 8.09811 15.6062 8.10434 15.72C8.09918 15.9357 8.16422 16.1472 8.28967 16.3227C8.44078 16.5142 8.63617 16.6661 8.85901 16.7653C9.73067 17.1431 10.6756 17.3219 11.625 17.2887C12.3159 17.3026 13.0036 17.1905 13.6543 16.958C14.1943 16.7663 14.6645 16.4173 15.0043 15.956C15.3381 15.4688 15.5072 14.8876 15.487 14.2973C15.5 13.8153 15.3793 13.339 15.1383 12.9213C14.8936 12.5239 14.564 12.1856 14.173 11.9307C13.678 11.6113 13.1528 11.3414 12.605 11.1247C12.5465 11.096 12.4858 11.0717 12.4237 11.052C11.8623 10.82 11.4401 10.6338 11.157 10.4933C10.9042 10.3748 10.6754 10.211 10.4817 10.01C10.3187 9.83888 10.2288 9.61098 10.231 9.37467C10.2232 9.19467 10.2639 9.01588 10.3488 8.85698C10.4337 8.69807 10.5597 8.56489 10.7137 8.47133C11.0785 8.2538 11.4985 8.14638 11.923 8.162C12.2487 8.15859 12.5734 8.19895 12.8883 8.282C13.2305 8.38067 13.5653 8.50319 13.8903 8.64867C14.0222 8.70986 14.1656 8.74214 14.311 8.74333C14.4167 8.74614 14.5217 8.72656 14.6193 8.68588C14.7168 8.64521 14.8046 8.58436 14.877 8.50733C14.9535 8.42374 15.0127 8.32591 15.0514 8.21941C15.0901 8.11292 15.1074 7.99985 15.1023 7.88667C15.1058 7.6688 15.0297 7.45716 14.8883 7.29133C14.6965 7.08979 14.4586 6.93788 14.195 6.84867C13.908 6.74326 13.6112 6.66666 13.309 6.62C12.8868 6.55075 12.4595 6.51796 12.0317 6.522C11.3778 6.51813 10.7282 6.62752 10.1117 6.84533C9.5448 7.03671 9.03875 7.37485 8.64501 7.82533C8.26614 8.27393 8.06582 8.84639 8.08234 9.43333C8.06889 9.89583 8.17644 10.3538 8.39434 10.762Z" stroke="white" stroke-width="0.75" stroke-linejoin="round"/>
</svg>
