<?xml version="1.0" encoding="UTF-8"?>
<svg id="Calque_2" data-name="Calque 2" xmlns="http://www.w3.org/2000/svg" viewBox="0 0 7 7">
  <defs>
    <style>
      .cls-1 {
        fill: #fff;
        stroke-width: 0px;
      }
    </style>
  </defs>
  <path class="cls-1" d="M6.3,1.77v1.31h-.12c-.48,0-.94-.13-1.35-.37v1.92c0,1.14-.92,2.06-2.06,2.06-.57,0-1.12-.24-1.51-.66-.36-.38-.56-.88-.56-1.4,0-1.11.9-2.04,2-2.07h.07c.09,0,.19.01.28.02h.11v1.37l-.17-.05c-.51-.16-.98.23-.98.73,0,.16.05.31.14.44.15.2.37.32.62.32.41,0,.74-.32.76-.73V1.07h.25v3.59c-.02.55-.47.98-1.01.98-.33,0-.63-.16-.82-.42-.13-.18-.19-.38-.19-.59,0-.61.53-1.1,1.15-1.01v-.81h-.21s-.07.01-.09.01c-.92.08-1.66.86-1.66,1.81,0,.46.18.9.49,1.23.34.37.83.58,1.33.58,1,0,1.81-.81,1.81-1.81v-2.39l.2.14c.38.27.81.42,1.27.44v-.8c-.07,0-.14-.02-.21-.03-.33-.07-.64-.25-.86-.52-.23-.25-.36-.57-.39-.91h-.81v-.25h1.05v.12c0,.32.12.64.33.88.2.22.45.37.73.43.1.02.19.03.29.03h.12Z"/>
</svg>