<?xml version="1.0" encoding="UTF-8"?>
<svg id="Calque_2" data-name="Calque 2" xmlns="http://www.w3.org/2000/svg" viewBox="0 0 7 7">
  <defs>
    <style>
      .cls-1 {
        fill: #fff;
        stroke-width: 0px;
      }
    </style>
  </defs>
  <path class="cls-1" d="M6.79.67l-.29.06c.06.27,0,.47-.05.59-.41-.54-1.13-.78-1.82-.57-.53.16-1.08.63-1.1,1.48-.02,0-.05,0-.07,0C2.07,2.23,1.09.81,1.08.79l-.09-.14-.13.11s-.56.5-.08,1.5l.27-.13c-.24-.51-.17-.83-.09-1,.32.41,1.24,1.4,2.5,1.4.08,0,.16,0,.24-.01h.14s0-.16,0-.16c-.04-.66.29-1.15.88-1.32.53-.16,1.24,0,1.59.61l.05.09h.1c.06-.02.13-.08.2-.17.09-.13.24-.43.14-.89Z"/>
  <path class="cls-1" d="M1.33,3.74l.05-.3c-.41-.07-.54-.38-.58-.57h.41v-.3H.48v.15c0,.3.18.9.85,1.02Z"/>
  <path class="cls-1" d="M1.77,3.82h-.73v.15c0,.3.18.9.85,1.02l.05-.3c-.41-.07-.54-.38-.58-.57h.41v-.3Z"/>
  <path class="cls-1" d="M4.01,5.84c-1.19.4-2.53.19-3.17-.28.95-.06,1.51-.35,1.54-.37l-.14-.27s-.67.34-1.75.34H.18l.18.24c.41.54,1.33.84,2.31.84.48,0,.97-.07,1.42-.23.9-.3,2.4-1.17,2.4-3.59h-.3c0,2.23-1.38,3.03-2.19,3.3Z"/>
</svg>